<?xml version="1.0" standalone="no"?>
<!DOCTYPE svg PUBLIC "-//W3C//DTD SVG 20010904//EN"
 "http://www.w3.org/TR/2001/REC-SVG-20010904/DTD/svg10.dtd">
<svg version="1.0" xmlns="http://www.w3.org/2000/svg"
 width="1024.000000pt" height="1024.000000pt" viewBox="0 0 1024.000000 1024.000000"
 preserveAspectRatio="xMidYMid meet">
<metadata>
Created by potrace 1.11, written by Peter Selinger 2001-2013
</metadata>
<g transform="translate(0.000000,1024.000000) scale(0.100000,-0.100000)"
fill="#000000" stroke="none">
<path d="M0 5120 l0 -5120 5120 0 5120 0 0 5120 0 5120 -5120 0 -5120 0 0
-5120z m5386 3800 c812 -64 1522 -346 2146 -852 145 -117 419 -391 536 -536
507 -625 788 -1334 852 -2146 14 -185 13 -282 -5 -320 -45 -95 -193 -84 -223
17 -6 18 -13 106 -16 197 -24 745 -299 1471 -790 2085 -102 129 -392 419 -521
521 -614 491 -1341 766 -2085 790 -91 3 -179 10 -197 16 -100 30 -112 176 -19
222 37 19 139 20 322 6z m159 -840 c525 -77 994 -278 1425 -610 122 -94 406
-378 500 -500 394 -512 611 -1098 637 -1722 5 -132 4 -158 -11 -185 -32 -62
-127 -84 -181 -41 -42 33 -55 76 -55 185 0 383 -133 871 -338 1238 -290 522
-742 937 -1282 1180 -309 140 -729 235 -1033 235 -109 0 -152 13 -185 55 -41
52 -22 147 36 180 36 21 292 13 487 -15z m-85 -814 c942 -161 1648 -870 1807
-1815 13 -80 18 -162 18 -331 0 -169 -5 -251 -18 -331 -159 -948 -868 -1657
-1816 -1816 -149 -25 -513 -25 -662 0 -948 159 -1657 868 -1816 1816 -25 149
-25 513 0 662 104 620 437 1136 955 1483 282 188 609 304 992 350 80 10 449
-3 540 -18z m-3951 -2051 c42 -36 49 -67 55 -255 24 -745 299 -1471 790 -2085
102 -129 392 -419 521 -521 614 -491 1341 -766 2085 -790 91 -3 179 -10 197
-16 101 -30 112 -178 17 -223 -38 -18 -135 -19 -320 -5 -812 64 -1522 346
-2146 852 -145 117 -419 391 -536 536 -507 625 -788 1334 -852 2146 -14 184
-13 282 5 320 32 67 127 88 184 41z m816 3 c42 -33 55 -76 55 -185 0 -383 133
-871 338 -1238 253 -454 623 -824 1077 -1077 367 -205 855 -338 1238 -338 109
0 152 -13 185 -55 43 -54 21 -149 -41 -181 -69 -36 -478 2 -762 71 -417 101
-790 281 -1145 555 -122 94 -406 378 -500 500 -332 432 -533 902 -610 1426
-27 190 -38 432 -20 474 27 66 129 93 185 48z"/>
<path d="M4900 7034 c-216 -27 -460 -102 -657 -204 -529 -272 -895 -760 -1015
-1350 -20 -102 -23 -143 -23 -360 0 -217 3 -258 23 -360 158 -781 751 -1374
1532 -1532 102 -20 143 -23 360 -23 217 0 258 3 360 23 781 158 1374 751 1532
1532 20 102 23 143 23 360 0 217 -3 258 -23 360 -158 779 -752 1374 -1527
1530 -90 19 -150 23 -330 25 -121 2 -236 1 -255 -1z"/>
</g>
</svg>
